My Dil Goes Mmmm - Salaam Namaste (2005) [UJ.rip].avi
====================================================================================
====================================================================================

---------------------------------------------------------------------
             My Dil Goes Mmmm - Salaam Namaste (2005)
---------------------------------------------------------------------

Format                                   : AVI
Format/Info                              : Audio Video Interleave
File size                                : 224 MiB
Duration                                 : 6mn 3s
Overall bit rate                         : 5 161 Kbps
Movie name                               : My Dil Goes Mmmm [UJ.rip]
Director                                 : Salaam Namaste
Genre                                    : Bollywood
Recorded date                            : 07/28/2012
Writing application                      : Lavf52.39.1
Copyright                                : @Utpal
Ripped by                                : UJ.rip on 7/28/2012
Posted by                                : UJ.rip on 7/28/2012

---------------------------------------------------------------------
                       Video
---------------------------------------------------------------------

ID                                       : 0
Format                                   : xvid
Codec ID                                 : xvid
Duration                                 : 6mn 3s
Bit rate                                 : 5 019 Kbps
Width                                    : 1 920 pixels
Height                                   : 1 080 pixels
Display aspect ratio                     : 16:9
Frame rate                               : 30.000 fps
Bits/(Pixel*Frame)                       : 0.081
Stream size                              : 217 MiB (97%)

---------------------------------------------------------------------
                       Audio
---------------------------------------------------------------------

ID                                       : 1
Format                                   : MPEG Audio
Format version                           : Version 1
Format profile                           : Layer 3
Mode                                     : Joint stereo
Mode extension                           : MS Stereo
Codec ID                                 : 55
Codec ID/Hint                            : MP3
Duration                                 : 6mn 3s
Bit rate mode                            : Constant
Bit rate                                 : 128 Kbps
Channel(s)                               : 2 channels
Sampling rate                            : 48.0 KHz
Compression mode                         : Lossy
Stream size                              : 5.55 MiB (2%)
Alignment                                : Aligned on interleaves
Interleave, duration                     : 24 ms (0.72 video frame)
Language                                 : hin

---------------------------------------------------------------------
Ripped By Utpal & Jayant
---------------------------------------------------------------------


Cover:                   
http://img13.imageshack.us/img13/1536/salaamnamastedvd.jpg

ScreenShots: 
http://img864.imageshack.us/img864/8476/mydilgoesmmmmsalaamnama.jpg

Uploader:                   
http://img402.imageshack.us/img402/4747/uploadera.jpg

                   
http://thepiratebay.se/user/AshUtpal	